<?xml version="1.0" encoding="utf-8"?>
<!-- Generator: Adobe Illustrator 17.0.0, SVG Export Plug-In . SVG Version: 6.00 Build 0)  -->
<!DOCTYPE svg PUBLIC "-//W3C//DTD SVG 1.1//EN" "http://www.w3.org/Graphics/SVG/1.1/DTD/svg11.dtd">
<svg version="1.1" id="Layer_1" xmlns="http://www.w3.org/2000/svg" xmlns:xlink="http://www.w3.org/1999/xlink" x="0px" y="0px"
	 width="70px" height="85.27px" viewBox="501.473 379.572 70 85.27" enable-background="new 501.473 379.572 70 85.27"
	 xml:space="preserve">
<g>
	<g>
		<g>
			<rect x="502.662" y="380.757" fill="#E1F4FD" width="45.874" height="68.795"/>
			<path fill="#E1F4FD" d="M549.727,450.748h-48.254v-71.175h48.254V450.748L549.727,450.748z M503.854,448.367h43.493v-66.415
				h-43.493V448.367z"/>
		</g>
		<rect x="510.328" y="387.209" fill="#00AEEF" width="15.304" height="2.38"/>
		<rect x="510.328" y="394.857" fill="#00AEEF" width="30.57" height="2.38"/>
		<rect x="510.328" y="402.506" fill="#00AEEF" width="22.953" height="2.38"/>
		<rect x="510.328" y="410.161" fill="#00AEEF" width="30.57" height="2.38"/>
		<rect x="510.328" y="417.81" fill="#00AEEF" width="30.57" height="2.38"/>
	</g>
	<g>
		<g>
			<rect x="517.97" y="426.637" fill="#ABE1FA" width="53.504" height="38.206"/>
			<path fill="#ABE1FA" d="M569.088,429.014v33.445h-48.743v-33.445H569.088 M571.468,426.633h-53.504v38.206h53.504V426.633
				L571.468,426.633z"/>
		</g>
		<g>
			<polygon fill="#44C8F5" points="517.945,464.839 571.398,464.839 544.675,438.116 			"/>
			<path fill="#44C8F5" d="M544.675,441.48l20.979,20.979h-41.957L544.675,441.48 M544.675,438.116l-26.723,26.723h53.453
				L544.675,438.116L544.675,438.116z"/>
		</g>
		<g>
			<polygon fill="#E1F4FD" points="517.945,426.633 571.398,426.633 544.675,453.363 			"/>
			<path fill="#E1F4FD" d="M565.647,429.014l-20.979,20.979l-20.972-20.979H565.647 M571.398,426.633h-53.453l26.723,26.723
				L571.398,426.633L571.398,426.633z"/>
		</g>
	</g>
</g>
</svg>
