<?xml version="1.0" encoding="utf-8"?>
<!-- Generator: Adobe Illustrator 17.0.0, SVG Export Plug-In . SVG Version: 6.00 Build 0)  -->
<!DOCTYPE svg PUBLIC "-//W3C//DTD SVG 1.1//EN" "http://www.w3.org/Graphics/SVG/1.1/DTD/svg11.dtd">
<svg version="1.1" id="Layer_1" xmlns="http://www.w3.org/2000/svg" xmlns:xlink="http://www.w3.org/1999/xlink" x="0px" y="0px"
	 width="70px" height="125.371px" viewBox="451.976 360.848 70 125.371" enable-background="new 451.976 360.848 70 125.371"
	 xml:space="preserve">
<g>
	<path fill="#ABE1FA" d="M515.008,452.967c-1.725,0-3.285,0.654-4.502,1.692v-0.35c0-3.847-3.133-6.981-6.981-6.981
		c-1.725,0-3.285,0.654-4.502,1.692v-0.397c0-3.847-3.133-6.981-6.981-6.981c-1.745,0-3.325,0.668-4.555,1.732v-17.816
		c0-3.847-3.133-6.981-6.981-6.981s-6.981,3.133-6.981,6.981v60.659h48.449v-26.271C521.982,456.1,518.856,452.967,515.008,452.967z
		"/>
	<g>
		<rect x="492.79" y="421.322" fill="#00AEEF" width="16.308" height="2.479"/>
	</g>
	<g>
		<rect x="451.976" y="421.322" fill="#00AEEF" width="16.308" height="2.479"/>
	</g>
	<g>
		<g>
			<line fill="none" x1="488.671" y1="414.42" x2="500.207" y2="402.891"/>
			
				<rect x="486.285" y="407.419" transform="matrix(-0.7071 0.7071 -0.7071 -0.7071 1133.0256 348.0015)" fill="#00AEEF" width="16.308" height="2.479"/>
		</g>
	</g>
	<g>
		<g>
			<line fill="none" x1="472.403" y1="414.42" x2="460.874" y2="402.891"/>
			
				<rect x="465.397" y="400.503" transform="matrix(-0.7071 0.7071 -0.7071 -0.7071 1085.5632 367.6602)" fill="#00AEEF" width="2.479" height="16.308"/>
		</g>
	</g>
	<path fill="#44C8F5" d="M477.07,423.55v4.608c0,1.924,1.567,3.484,3.484,3.484s3.484-1.56,3.484-3.484v-4.608H477.07z"/>
	<g>
		<path fill="#E1F4FD" d="M481.109,361.846l-0.912-0.998l-0.912,0.998c-0.483,0.529-11.807,13.056-11.807,24.869
			c0,12.078,11.648,18.331,12.144,18.589l0.575,0.304l0.575-0.304c0.496-0.258,12.144-6.511,12.144-18.589
			C492.915,374.902,481.591,362.375,481.109,361.846z"/>
		<path fill="#44C8F5" d="M480.19,405.608l-0.575-0.304c-0.496-0.258-12.144-6.511-12.144-18.589c0-3.517,1.005-7.093,2.419-10.399
			c-0.489-0.416,11.079,9.499,11.079,9.499v19.832L480.19,405.608z"/>
		<path fill="#E1F4FD" d="M480.977,385.816l-11.079-9.499c3.352-7.807,9.043-14.1,9.38-14.471l0.912-0.998L480.977,385.816z"/>
		<path fill="#ABE1FA" d="M492.175,381.189c-2.525-9.903-10.663-18.9-11.066-19.343l-0.912-0.998l0.78,31.586L492.175,381.189z"/>
	</g>
</g>
</svg>
