<?xml version="1.0" encoding="utf-8"?>
<!-- Generator: Adobe Illustrator 17.0.0, SVG Export Plug-In . SVG Version: 6.00 Build 0)  -->
<!DOCTYPE svg PUBLIC "-//W3C//DTD SVG 1.1//EN" "http://www.w3.org/Graphics/SVG/1.1/DTD/svg11.dtd">
<svg version="1.1" id="Layer_1" xmlns="http://www.w3.org/2000/svg" xmlns:xlink="http://www.w3.org/1999/xlink" x="0px" y="0px"
	 width="70px" height="72.248px" viewBox="497.331 384.821 70 72.248" enable-background="new 497.331 384.821 70 72.248"
	 xml:space="preserve">
<g>
	<g>
		<g>
			<polygon fill="#44C8F5" points="549.677,414.142 567.26,414.142 567.26,431.757 			"/>
			<path fill="#44C8F5" d="M564.859,416.543v9.406l-9.393-9.406H564.859 M567.26,414.142h-17.583l17.583,17.609V414.142
				L567.26,414.142z"/>
		</g>
		<g>
			<rect x="514.504" y="384.821" fill="#ABE1FA" width="52.827" height="35.192"/>
			<path fill="#ABE1FA" d="M564.93,387.222v30.39h-48.024v-30.39H564.93 M567.331,384.821h-52.827v35.192h52.827V384.821
				L567.331,384.821z"/>
		</g>
	</g>
	<g>
		<polygon fill="#ABE1FA" points="516.156,436.553 498.573,436.553 498.573,454.168 		"/>
		<path fill="#ABE1FA" d="M497.369,457.069v-21.713h21.681L497.369,457.069z M499.771,437.757v13.504l13.492-13.504H499.771z"/>
	</g>
	<g>
		<rect x="498.528" y="403.269" fill="#E1F4FD" width="54.837" height="39.156"/>
		<path fill="#E1F4FD" d="M554.563,443.622h-57.232v-41.557h57.238v41.557H554.563z M499.732,441.221h52.436v-36.754h-52.436
			V441.221z"/>
	</g>
	<g>
		<rect x="506.263" y="409.429" fill="#00AEEF" width="15.438" height="2.401"/>
		<rect x="506.263" y="417.145" fill="#00AEEF" width="30.838" height="2.401"/>
		<rect x="506.263" y="424.867" fill="#00AEEF" width="23.154" height="2.401"/>
		<rect x="506.263" y="432.583" fill="#00AEEF" width="30.838" height="2.401"/>
	</g>
</g>
</svg>
